<svg width="655" height="100" viewBox="0 0 655 100" fill="none" xmlns="http://www.w3.org/2000/svg">
<path d="M230.838 90.2048C224.716 94.2983 217.229 96.654 208.709 96.654C195.235 96.654 184.277 92.0076 176.638 83.9136C168.891 75.7067 164.594 63.9817 164.594 49.9999C164.594 36.1902 168.984 24.5387 176.598 16.329C184.227 8.0996 195.066 3.34589 207.947 3.34589C216.682 3.34589 224.333 5.68187 230.559 9.87416C236.974 14.1906 241.855 20.4762 244.831 28.2063C245.161 29.0611 245.636 30.4942 246.087 31.95C246.572 33.5186 247.038 35.121 247.277 36.0745L247.678 37.6741L233.335 38.0098L233.076 36.9914C231.394 30.3926 228.212 24.9534 223.783 21.2238C219.554 17.6635 214.157 15.6407 207.82 15.6407C199.159 15.6407 191.959 19.0148 186.929 24.8914C181.834 30.8441 178.926 39.3838 178.926 49.6162C178.926 60.1365 181.826 68.9274 187.084 75.0268C192.191 80.9457 199.565 84.3535 208.709 84.3535C214.972 84.3535 220.459 82.4352 224.736 78.8664C228.982 75.3202 232.068 70.1292 233.578 63.5445L233.812 62.5261L248.335 62.4273L247.895 64.0947C247.664 64.9693 247.156 66.5773 246.623 68.1854C246.081 69.8132 245.517 71.4185 245.184 72.2423C242.185 79.6733 237.276 85.8996 230.838 90.2048ZM652.948 95.7626H640.323V4.2346H654.271V95.7626H652.948ZM581.848 4.2346H596.603C607.95 34.7401 619.271 65.2514 630.598 95.7626H616.478L607.843 72.1462H569.181L560.418 95.7626H546.674L580.931 4.2346H581.842H581.848ZM588.574 19.4183L573.461 60.3566H603.571L588.571 19.4183H588.574ZM536.272 95.7626H524.028V80.0372H537.595V95.7626H536.272ZM480.031 95.7626H448.107V4.2346H480.031C489.592 4.2346 496.659 6.31379 501.433 10.0603C506.584 14.1031 509.033 20.005 509.033 27.2724C509.033 32.1305 507.465 36.8194 504.686 40.6139C502.793 43.1981 500.338 45.3676 497.432 46.8938C501.811 48.279 505.634 50.6206 508.517 53.8367C512.015 57.7413 514.111 62.907 514.111 69.1728C514.111 77.5884 511.09 84.3366 505.1 88.9549C499.393 93.356 491.017 95.7626 480.029 95.7626H480.031ZM462.055 54.1161V83.9728H480.539C487.175 83.9728 491.968 82.6186 495.094 80.1106C498.282 77.5518 499.785 73.7036 499.785 68.7891C499.785 64.1708 498.039 60.5709 495.001 58.1165C491.756 55.4956 487.014 54.1132 481.301 54.1132H462.055V54.1161ZM462.055 16.0244V42.5802H480.285C485.171 42.5802 488.879 41.3023 491.361 39.034C493.909 36.7037 495.215 33.2675 495.215 29.047C495.215 24.8095 494.022 21.4918 491.423 19.2997C488.901 17.1726 485.002 16.0215 479.524 16.0215H462.055V16.0244ZM394.075 95.7626H383.281L356.545 29.6225V95.7626H343.105V4.2346H360.046L389.367 76.7985L418.196 4.2346H435.14V95.7626H421.7V28.5758L394.967 95.7626H394.075ZM284.63 4.2346H299.385C310.732 34.7401 322.053 65.2514 333.38 95.7626H319.26L310.627 72.1462H271.966L263.203 95.7626H249.458L283.716 4.2346H284.627H284.63ZM291.356 19.4183L276.243 60.3566H306.353L291.353 19.4183H291.356Z" fill="white"/>
<path fill-rule="evenodd" clip-rule="evenodd" d="M55.7468 90.5378L55.3659 91.2544C54.8863 92.3208 54.7058 93.5367 54.9061 94.7809C55.4562 98.155 58.6386 100.443 62.0099 99.89C63.7449 99.6079 65.1921 98.6289 66.1118 97.2888L66.6084 96.4284L69.8668 90.7662C69.8865 90.7182 69.9092 90.6731 69.9289 90.6251C70.132 90.185 70.3774 89.7704 70.6596 89.3867L76.5079 79.2304L82.3168 89.3189C82.6215 89.7252 82.8838 90.1625 83.101 90.628C83.1349 90.7014 83.1659 90.7746 83.1969 90.848L86.3736 96.3663L86.9406 97.3509C87.8632 98.6628 89.2936 99.6135 91.0004 99.8928C94.3745 100.443 97.554 98.1549 98.1069 94.7836C98.3157 93.5028 98.1155 92.2474 97.5992 91.1556L97.3255 90.6393L88.7631 74.4794L87.8209 72.7021L87.3525 71.8191C86.2382 70.1998 84.7712 68.8399 83.0587 67.8553C81.1319 66.7466 78.8946 66.1119 76.5135 66.1119C74.1268 66.1119 71.8896 66.7494 69.9599 67.8609C68.2249 68.8596 66.7409 70.2421 65.6237 71.8953L64.2978 74.3978L55.7439 90.5462L55.7468 90.5378Z" fill="white"/>
<path fill-rule="evenodd" clip-rule="evenodd" d="M11.1184 97.5596L65.4883 30.9062C65.6717 30.6635 65.8635 30.4294 66.0638 30.2009C68.6029 27.2866 72.3439 25.4415 76.5164 25.4415C80.6918 25.4415 84.4355 27.2894 86.9774 30.2093C87.1721 30.4322 87.3583 30.6607 87.536 30.8977L89.5418 33.3549L141.737 97.3423L142.332 98.0731C143.46 99.258 145.052 100 146.818 100C150.234 100 153.004 97.2295 153.004 93.8131C153.004 92.5661 152.638 91.4065 152.003 90.4361L151.47 89.7364L108.3 32.8415L99.4639 21.1956L98.564 20.0135L89.5389 8.11657L87.22 5.0612C87.11 4.9286 86.9999 4.79886 86.887 4.66909C84.348 1.80558 80.641 0 76.5108 0C72.3805 0 68.6734 1.80558 66.1343 4.66909C66.0215 4.79322 65.9144 4.92295 65.8072 5.05273L65.1329 5.94145L63.4825 8.11375L54.4377 20.0361L53.5603 21.1928L44.7046 32.8641L1.65318 89.601L0.908484 90.5828C0.332961 91.5222 0 92.6281 0 93.8102C0 97.2267 2.77046 99.9971 6.18692 99.9971C8.05173 99.9971 9.72189 99.1733 10.8588 97.8699L11.1127 97.5596H11.1184Z" fill="white"/>
<path fill-rule="evenodd" clip-rule="evenodd" d="M64.9326 40.5519L27.7155 89.5983L26.9677 90.5829C26.3922 91.5223 26.0621 92.6282 26.0621 93.8103C26.0621 97.2267 28.8326 99.9972 32.2491 99.9972C34.1139 99.9972 35.7868 99.1706 36.921 97.8673L37.1664 97.5682L66.2839 61.8716C68.8174 59.1012 72.4652 57.3606 76.5164 57.3606C80.5705 57.3606 84.2182 59.1012 86.7516 61.8745L115.686 97.3424L116.278 98.0703C117.407 99.258 119.001 99.9972 120.767 99.9972C124.183 99.9972 126.954 97.2267 126.954 93.8103C126.954 92.5661 126.587 91.4038 125.952 90.4361L125.419 89.7337L86.9802 39.0735C86.8955 38.9776 86.8137 38.8845 86.7263 38.7914C84.1929 36.0323 80.5564 34.303 76.5164 34.303C72.4652 34.303 68.8174 36.0408 66.2839 38.8112C66.2078 38.8959 66.1316 38.9804 66.0554 39.0679L64.9297 40.5519H64.9326Z" fill="white"/>
</svg>
